<?xml version="1.0" standalone="no"?>
<!DOCTYPE svg PUBLIC "-//W3C//DTD SVG 20010904//EN"
 "http://www.w3.org/TR/2001/REC-SVG-20010904/DTD/svg10.dtd">
<svg version="1.0" xmlns="http://www.w3.org/2000/svg"
 width="500.000000pt" height="500.000000pt" viewBox="0 0 500.000000 500.000000"
 preserveAspectRatio="xMidYMid meet">

<g transform="translate(0.000000,500.000000) scale(0.100000,-0.100000)"
fill="#000000" stroke="none">
<path d="M2394 3460 c-28 -5 -83 -21 -121 -35 -39 -14 -77 -25 -86 -25 -8 0
-17 -4 -19 -8 -1 -5 -30 -26 -63 -47 -75 -47 -189 -164 -234 -238 -45 -76 -79
-163 -98 -250 -14 -65 -14 -76 0 -109 19 -45 69 -78 119 -78 42 0 70 9 63 20
-2 4 4 15 15 25 20 18 20 17 20 -94 0 -126 6 -120 -79 -85 -86 36 -97 18 -127
-207 -21 -165 -22 -185 -9 -206 20 -30 68 -30 119 2 l39 23 65 -49 c71 -55
158 -102 241 -130 45 -16 85 -19 237 -19 178 0 186 1 264 30 206 75 376 242
454 448 30 79 50 176 42 207 -10 38 -46 74 -86 86 -34 10 -44 9 -85 -11 -36
-17 -52 -33 -66 -64 l-19 -41 0 73 c0 57 -3 72 -15 72 -12 0 -15 -24 -17 -137
l-3 -138 -170 -5 c-112 -3 -178 -9 -192 -18 l-23 -13 0 121 c0 110 -2 121 -17
118 -16 -3 -18 -18 -21 -121 l-3 -117 -29 15 c-40 21 -160 21 -160 0 0 -11 12
-15 50 -15 76 0 140 -34 140 -74 0 -3 -60 -6 -134 -6 l-134 0 -6 25 c-4 14
-19 31 -34 38 -26 12 -26 12 21 17 74 8 61 25 -20 28 l-73 3 0 279 0 279 78 3
c60 2 77 6 77 18 0 22 -148 27 -180 6 -14 -9 -26 -11 -32 -5 -11 11 -43 2 -43
-12 0 -5 -11 -14 -25 -19 -17 -7 -25 -17 -25 -35 0 -13 -11 -58 -25 -99 -14
-41 -25 -83 -25 -94 0 -43 -73 -70 -100 -37 -39 47 25 241 120 369 67 92 212
206 260 206 11 0 20 4 20 9 0 9 71 41 90 41 5 0 -2 -19 -15 -42 -14 -24 -25
-51 -25 -61 0 -10 -12 -29 -26 -42 -32 -29 -29 -60 6 -60 18 0 26 6 28 23 2
12 7 22 11 22 4 0 13 22 20 48 25 98 109 162 212 162 126 -1 219 -93 219 -217
0 -58 -19 -100 -99 -223 l-62 -95 3 79 3 80 32 8 c37 10 52 43 34 76 -25 46
-87 34 -98 -19 -4 -24 -11 -29 -33 -29 -23 0 -29 5 -34 30 -8 42 -46 59 -81
36 -42 -28 -25 -96 26 -96 23 0 31 -29 27 -101 l-3 -54 -67 106 c-37 58 -73
119 -79 137 -11 33 -26 41 -35 19 -8 -21 13 -65 82 -173 35 -56 64 -108 64
-116 0 -8 7 -23 15 -34 8 -10 15 -31 15 -46 0 -33 33 -58 76 -58 37 0 64 26
64 62 0 14 7 31 15 38 8 7 15 21 15 32 0 10 30 65 66 121 37 56 71 114 76 130
12 32 18 33 49 8 l23 -18 -25 -13 c-84 -44 -69 -70 42 -70 l79 0 0 -120 c0
-100 3 -120 15 -120 12 0 15 17 15 94 0 74 3 95 15 100 18 7 19 23 3 41 -7 8
-19 21 -26 30 -7 8 -25 15 -39 15 -25 0 -25 1 -9 19 12 13 15 25 9 35 -9 16
-112 96 -124 96 -3 0 -9 17 -12 38 -4 20 -15 54 -26 75 -10 20 -17 37 -16 37
2 0 25 -9 51 -20 61 -27 171 -100 208 -139 36 -38 54 -39 107 -5 23 14 43 23
46 20 7 -6 -28 -288 -37 -299 -3 -4 -33 2 -65 13 -32 11 -60 20 -62 20 -2 0
-3 -14 -1 -32 3 -28 9 -33 63 -54 73 -28 77 -28 105 -6 19 15 25 41 46 206 24
178 24 189 8 207 -23 26 -57 24 -109 -7 l-44 -26 -58 48 c-32 25 -68 51 -80
57 -13 6 -23 19 -23 30 0 14 -5 18 -19 14 -11 -3 -66 11 -123 31 -89 30 -118
35 -213 38 -60 2 -133 -1 -161 -6z m74 -354 c3 -12 -1 -17 -10 -14 -7 3 -15
13 -16 22 -3 12 1 17 10 14 7 -3 15 -13 16 -22z m170 7 c-5 -25 -28 -28 -28
-4 0 12 6 21 16 21 9 0 14 -7 12 -17z m-72 -105 c-3 -29 -6 -74 -6 -100 0 -41
-3 -48 -20 -48 -17 0 -20 7 -20 39 0 21 -3 66 -6 100 l-7 61 33 0 33 0 -7 -52z
m-466 -284 c0 -230 -2 -256 -16 -250 -9 3 -27 9 -40 12 l-24 6 0 244 0 244 40
0 40 0 0 -256z m470 75 c0 -16 -5 -20 -27 -17 -17 2 -29 10 -31 21 -3 13 3 17
27 17 25 0 31 -4 31 -21z m568 -155 c26 -18 28 -54 7 -134 -45 -174 -183 -346
-342 -428 -256 -132 -549 -104 -767 75 -97 79 -85 76 -140 42 -26 -17 -50 -28
-52 -26 -4 4 21 224 32 279 l5 27 127 -45 c70 -25 135 -48 145 -51 26 -8 21
-17 -22 -41 -79 -45 -77 -62 18 -127 129 -88 294 -122 441 -91 226 47 404 222
450 442 12 56 38 94 64 94 6 0 22 -7 34 -16z m-218 -210 c0 -4 -9 -22 -21 -40
l-21 -34 -159 0 -159 0 12 26 c20 43 59 53 211 54 75 0 137 -3 137 -6z m-106
-134 c-19 -20 -31 -20 -339 -18 -308 3 -319 4 -290 20 26 15 66 17 340 18
l309 0 -20 -20z m-104 -70 c-40 -27 -159 -54 -235 -54 -76 0 -195 27 -235 54
-10 6 66 10 235 10 169 0 245 -4 235 -10z"/>
<path d="M2186 3232 c-22 -24 -24 -31 -13 -41 18 -14 67 21 67 50 0 27 -22 24
-54 -9z"/>
<path d="M2844 3245 c-11 -28 41 -71 66 -55 12 7 9 15 -15 40 -32 34 -43 37
-51 15z"/>
<path d="M2143 3153 c-19 -7 -16 -50 3 -57 19 -7 44 10 44 30 0 16 -30 33 -47
27z"/>
<path d="M2170 2845 c0 -12 18 -15 105 -15 87 0 105 3 105 15 0 12 -18 15
-105 15 -87 0 -105 -3 -105 -15z"/>
<path d="M2700 2845 c0 -12 18 -15 105 -15 87 0 105 3 105 15 0 12 -18 15
-105 15 -87 0 -105 -3 -105 -15z"/>
<path d="M2205 2760 c-14 -23 11 -30 109 -30 74 0 107 4 115 13 6 8 8 17 4 20
-10 11 -221 8 -228 -3z"/>
<path d="M2652 2753 c3 -16 16 -18 113 -18 97 0 110 2 113 18 3 15 -7 17 -113
17 -106 0 -116 -2 -113 -17z"/>
<path d="M2200 2665 c0 -13 16 -15 118 -13 153 4 151 22 -3 26 -99 2 -115 0
-115 -13z"/>
<path d="M2650 2665 c0 -12 19 -15 115 -15 96 0 115 3 115 15 0 12 -19 15
-115 15 -96 0 -115 -3 -115 -15z"/>
<path d="M2211 2591 c-7 -5 -10 -14 -7 -20 8 -12 218 -16 229 -4 4 3 2 12 -4
20 -13 15 -195 19 -218 4z"/>
<path d="M2663 2593 c-7 -2 -13 -11 -13 -19 0 -11 22 -14 115 -14 92 0 115 3
115 14 0 8 -7 17 -16 20 -19 7 -183 7 -201 -1z"/>
<path d="M1694 1926 c-7 -19 -1 -293 7 -301 4 -3 35 -2 70 3 56 8 59 10 22 11
l-43 1 0 109 c0 60 -3 123 -6 140 -8 36 -41 61 -50 37z"/>
<path d="M2627 1923 c-17 -16 -4 -62 38 -140 51 -94 57 -126 23 -121 -15 2
-30 17 -42 43 -11 21 -21 34 -23 28 -7 -21 27 -73 51 -79 36 -9 68 -1 80 19 9
14 0 39 -46 129 -43 83 -55 114 -45 120 8 5 5 8 -9 8 -11 0 -24 -3 -27 -7z"/>
<path d="M2690 1919 c8 -8 21 -21 29 -29 12 -12 11 -10 0 9 -9 14 -22 27 -30
29 -11 3 -11 2 1 -9z"/>
<path d="M2426 1786 c-6 -88 3 -136 28 -136 27 0 41 33 46 114 5 74 7 81 27
84 22 3 22 0 25 -105 2 -66 7 -107 13 -106 13 4 18 142 7 185 -8 31 -12 33
-49 33 -23 0 -45 3 -49 8 -4 4 -15 7 -24 7 -14 0 -18 -14 -24 -84z"/>
<path d="M2994 1857 c-3 -8 -3 -56 -2 -108 3 -87 5 -94 24 -97 35 -5 48 23 49
112 2 73 4 81 22 84 25 4 33 -28 33 -140 0 -73 1 -79 16 -67 14 11 16 28 11
95 -6 106 -18 128 -63 121 -18 -3 -36 -1 -39 4 -9 14 -45 11 -51 -4z"/>
<path d="M1890 1830 c-43 -61 -35 -149 16 -172 33 -15 66 2 97 51 l21 35 -30
-23 c-34 -25 -56 -21 -72 14 -12 26 -7 35 18 35 21 0 50 31 50 53 0 19 -29 37
-59 37 -11 0 -29 -14 -41 -30z m75 -15 c0 -20 -30 -43 -41 -32 -11 11 15 59
29 54 6 -2 12 -12 12 -22z"/>
<path d="M2154 1849 c-45 -13 -76 -51 -81 -103 -5 -38 -2 -48 21 -70 18 -19
32 -25 49 -21 20 5 24 3 23 -17 -1 -27 34 -37 52 -15 17 21 18 167 1 202 -16
33 -24 36 -65 24z m17 -81 c-8 -64 -13 -73 -37 -64 -14 5 -16 15 -11 59 4 32
13 57 24 65 25 18 31 3 24 -60z"/>
<path d="M3215 1834 c-45 -48 -42 -134 7 -168 46 -32 81 -17 93 39 5 24 4 27
-5 13 -24 -38 -69 -9 -70 45 0 57 37 88 59 50 14 -24 14 2 1 28 -15 27 -56 24
-85 -7z"/>
<path d="M2336 1842 c6 -4 20 -23 30 -42 16 -31 19 -33 22 -13 5 32 -15 63
-41 63 -13 0 -17 -3 -11 -8z"/>
<path d="M2794 1815 c9 -50 30 -83 61 -97 25 -11 25 -12 18 -110 -5 -86 -4
-98 10 -98 9 0 23 10 31 23 16 25 36 143 36 216 0 85 -32 136 -44 71 -3 -16
-9 -44 -12 -61 -9 -45 -34 -33 -66 30 -36 70 -42 75 -34 26z"/>
<path d="M2270 1813 c0 -82 14 -162 28 -168 9 -3 19 0 24 7 9 15 10 98 2 151
-6 31 -11 37 -30 37 -20 0 -24 -5 -24 -27z"/>
</g>
</svg>
